<svg width="30" height="30" viewBox="0 0 30 30" fill="none" xmlns="http://www.w3.org/2000/svg">
<path d="M5.00055 4C3.89555 4 3.00055 4.895 3.00055 6V9V11H22.0006H27.0006V8C27.0006 6.895 26.1056 6 25.0006 6H12.1998L11.5826 4.9707C11.2216 4.3687 10.5707 4 9.86774 4H5.00055ZM2.50251 13C1.49351 13 0.770958 13.9774 1.06696 14.9414L4.03571 24.5879C4.29471 25.4269 5.06982 26 5.94782 26H15.0006H24.0533C24.9313 26 25.7064 25.4269 25.9654 24.5879L28.9341 14.9414C29.2301 13.9774 28.5076 13 27.4986 13H15.0006H2.50251Z" fill="currentColor"/>
<path d="M8.48 22.07C7.63333 22.07 6.96333 21.8533 6.47 21.42L6.74 20.82C7.00667 21.0267 7.28 21.18 7.56 21.28C7.84667 21.3733 8.16333 21.42 8.51 21.42C8.89 21.42 9.17667 21.3567 9.37 21.23C9.57 21.0967 9.67 20.9067 9.67 20.66C9.67 20.46 9.60333 20.3033 9.47 20.19C9.33667 20.07 9.11667 19.9733 8.81 19.9L7.96 19.7C7.54 19.6067 7.21333 19.44 6.98 19.2C6.75333 18.96 6.64 18.6733 6.64 18.34C6.64 18.0467 6.72 17.79 6.88 17.57C7.04 17.3433 7.26333 17.1667 7.55 17.04C7.83667 16.9133 8.17667 16.85 8.57 16.85C8.92333 16.85 9.25667 16.9067 9.57 17.02C9.88333 17.1333 10.1467 17.2967 10.36 17.51L10.09 18.1C9.85 17.9 9.60333 17.7533 9.35 17.66C9.10333 17.56 8.84333 17.51 8.57 17.51C8.21 17.51 7.93 17.58 7.73 17.72C7.53667 17.86 7.44 18.05 7.44 18.29C7.44 18.4967 7.5 18.66 7.62 18.78C7.74667 18.9 7.94667 18.9933 8.22 19.06L9.07 19.27C9.54333 19.37 9.89 19.5367 10.11 19.77C10.3367 19.9967 10.45 20.2867 10.45 20.64C10.45 21.0733 10.2733 21.42 9.92 21.68C9.56667 21.94 9.08667 22.07 8.48 22.07ZM13.8209 22.07C13.3409 22.07 12.9209 21.9633 12.5609 21.75C12.2076 21.5367 11.9309 21.2367 11.7309 20.85C11.5376 20.4567 11.4409 19.9933 11.4409 19.46C11.4409 18.9333 11.5376 18.4733 11.7309 18.08C11.9309 17.6867 12.2076 17.3833 12.5609 17.17C12.9209 16.9567 13.3409 16.85 13.8209 16.85C14.3009 16.85 14.7176 16.9567 15.0709 17.17C15.4309 17.3833 15.7076 17.6867 15.9009 18.08C16.1009 18.4733 16.2009 18.9333 16.2009 19.46C16.2009 19.9933 16.1009 20.4567 15.9009 20.85C15.7076 21.2367 15.4309 21.5367 15.0709 21.75C14.7176 21.9633 14.3009 22.07 13.8209 22.07ZM13.8209 21.4C14.3143 21.4 14.6943 21.2367 14.9609 20.91C15.2343 20.5767 15.3709 20.0933 15.3709 19.46C15.3709 18.84 15.2343 18.3633 14.9609 18.03C14.6876 17.6967 14.3076 17.53 13.8209 17.53C13.3343 17.53 12.9509 17.6967 12.6709 18.03C12.3976 18.3633 12.2609 18.84 12.2609 19.46C12.2609 20.0933 12.3943 20.5767 12.6609 20.91C12.9343 21.2367 13.3209 21.4 13.8209 21.4ZM19.1636 22.07C18.3169 22.07 17.6469 21.8533 17.1536 21.42L17.4236 20.82C17.6903 21.0267 17.9636 21.18 18.2436 21.28C18.5303 21.3733 18.8469 21.42 19.1936 21.42C19.5736 21.42 19.8603 21.3567 20.0536 21.23C20.2536 21.0967 20.3536 20.9067 20.3536 20.66C20.3536 20.46 20.2869 20.3033 20.1536 20.19C20.0203 20.07 19.8003 19.9733 19.4936 19.9L18.6436 19.7C18.2236 19.6067 17.8969 19.44 17.6636 19.2C17.4369 18.96 17.3236 18.6733 17.3236 18.34C17.3236 18.0467 17.4036 17.79 17.5636 17.57C17.7236 17.3433 17.9469 17.1667 18.2336 17.04C18.5203 16.9133 18.8603 16.85 19.2536 16.85C19.6069 16.85 19.9403 16.9067 20.2536 17.02C20.5669 17.1333 20.8303 17.2967 21.0436 17.51L20.7736 18.1C20.5336 17.9 20.2869 17.7533 20.0336 17.66C19.7869 17.56 19.5269 17.51 19.2536 17.51C18.8936 17.51 18.6136 17.58 18.4136 17.72C18.2203 17.86 18.1236 18.05 18.1236 18.29C18.1236 18.4967 18.1836 18.66 18.3036 18.78C18.4303 18.9 18.6303 18.9933 18.9036 19.06L19.7536 19.27C20.2269 19.37 20.5736 19.5367 20.7936 19.77C21.0203 19.9967 21.1336 20.2867 21.1336 20.64C21.1336 21.0733 20.9569 21.42 20.6036 21.68C20.2503 21.94 19.7703 22.07 19.1636 22.07ZM22.4245 22V16.97H23.2345V22H22.4245ZM22.3445 14.84H23.3345V15.76H22.3445V14.84Z" fill="white"/>
</svg>
